<svg width="162" height="64" viewBox="0 0 162 64" fill="none" xmlns="http://www.w3.org/2000/svg">
<circle cx="24" cy="28.6992" r="24" fill="#1B92FF"/>
<mask id="mask0_1_1488" style="mask-type:alpha" maskUnits="userSpaceOnUse" x="24" y="4" width="24" height="56">
<rect width="24" height="54.6" transform="matrix(1 0 0 -1 24 59.2988)" fill="#D9D9D9"/>
</mask>
<g mask="url(#mask0_1_1488)">
<path d="M0 28.6992C-3.8147e-06 48.4992 24 59.2992 24 59.2992C24 59.2992 48 48.4992 48 28.6992C48 15.4444 37.2548 4.69922 24 4.69922C10.7452 4.69922 0 15.4444 0 28.6992Z" fill="#1B92FF"/>
</g>
<rect x="30.0488" y="19.5879" width="6.72" height="18.24" rx="3.36" fill="#E9F4FF"/>
<rect x="18.3784" y="19.6211" width="6.72" height="18.24" rx="3.36" fill="#E9F4FF"/>
<rect opacity="0.8" x="21.7498" y="18.2148" width="6.72" height="23.1162" rx="3.36" transform="rotate(45.4799 21.7498 18.2148)" fill="#E9F4FF"/>
<rect opacity="0.8" x="38.0845" y="25.2988" width="6.62767" height="13.0558" rx="3.31383" transform="rotate(45.4799 38.0845 25.2988)" fill="#E9F4FF"/>
<rect opacity="0.8" x="33.4204" y="18.1816" width="6.79744" height="23.0326" rx="3.39872" transform="rotate(45.4799 33.4204 18.1816)" fill="#E9F4FF"/>
<path d="M113.944 32.8457C112.954 32.8115 112.134 32.709 111.485 32.5383C110.871 32.3333 110.375 32.0601 110 31.7186C109.624 31.3429 109.351 30.8818 109.18 30.3353C109.043 29.7547 108.958 29.0716 108.924 28.2861C108.924 27.9787 108.907 27.4835 108.873 26.8004C108.873 26.0831 108.873 25.2976 108.873 24.4437C108.873 23.5557 108.855 22.6336 108.821 21.6773C108.821 20.7209 108.821 19.7988 108.821 18.9108C108.821 18.0228 108.821 17.2372 108.821 16.5541C108.821 15.8711 108.821 15.3587 108.821 15.0172C108.821 13.7535 109.163 12.8143 109.846 12.1995C110.563 11.5506 111.434 11.2261 112.459 11.2261C113.552 11.2261 114.44 11.5506 115.123 12.1995C115.84 12.8143 116.199 13.7706 116.199 15.0684V17.0664C116.848 17.0664 117.616 17.0664 118.504 17.0664C119.392 17.0664 120.297 17.0664 121.219 17.0664C122.141 17.0664 123.046 17.0664 123.934 17.0664C124.823 17.0664 125.591 17.0664 126.24 17.0664V14.761C126.24 13.5656 126.599 12.6776 127.316 12.097C128.033 11.5164 128.921 11.2261 129.98 11.2261C131.004 11.2261 131.875 11.4993 132.593 12.0458C133.31 12.5923 133.668 13.429 133.668 14.5561C133.668 15.0001 133.668 15.8711 133.668 17.1689C133.703 18.4326 133.72 19.7988 133.72 21.2674C133.72 22.736 133.72 24.1364 133.72 25.4684C133.72 26.7662 133.703 27.6713 133.668 28.1836C133.634 28.9692 133.532 29.6523 133.361 30.2329C133.19 30.7793 132.9 31.2404 132.49 31.6161C132.08 31.9577 131.517 32.2309 130.799 32.4358C130.082 32.6407 129.143 32.7603 127.982 32.7944C127.094 32.8627 126.052 32.914 124.857 32.9481C123.695 32.9481 122.483 32.9652 121.219 32.9994C119.99 32.9994 118.743 32.9994 117.479 32.9994C116.216 32.9652 115.037 32.914 113.944 32.8457ZM116.199 25.7758C116.233 26.3222 116.335 26.6467 116.506 26.7491C116.677 26.8516 117.052 26.9199 117.633 26.9541C118.726 26.9882 119.887 27.0053 121.117 27.0053C122.346 27.0053 123.456 26.9712 124.447 26.9028C124.823 26.8687 125.13 26.8516 125.369 26.8516C125.608 26.8175 125.796 26.7833 125.933 26.7491C126.069 26.6808 126.155 26.5784 126.189 26.4418C126.257 26.271 126.291 26.049 126.291 25.7758V22.6507C125.642 22.6507 124.874 22.6507 123.986 22.6507C123.098 22.6165 122.176 22.5994 121.219 22.5994C120.297 22.5994 119.392 22.6165 118.504 22.6507C117.616 22.6507 116.848 22.6507 116.199 22.6507V25.7758ZM122.705 44.1678C122.705 42.6308 122.978 41.2476 123.525 40.018C124.105 38.7885 124.891 37.7468 125.881 36.8929C126.906 36.0391 128.135 35.3901 129.57 34.9461C131.004 34.5021 132.593 34.2801 134.334 34.2801C135.94 34.2801 137.408 34.5021 138.74 34.9461C140.106 35.3901 141.268 36.0391 142.224 36.8929C143.215 37.7468 143.983 38.7885 144.529 40.018C145.076 41.2134 145.349 42.5967 145.349 44.1678C145.349 45.5681 145.093 46.8659 144.581 48.0613C144.103 49.2567 143.385 50.2984 142.429 51.1864C141.473 52.0744 140.311 52.7746 138.945 53.2869C137.613 53.7992 136.076 54.0554 134.334 54.0554C132.593 54.0554 131.004 53.7992 129.57 53.2869C128.17 52.7746 126.957 52.0744 125.933 51.1864C124.908 50.2984 124.105 49.2567 123.525 48.0613C122.978 46.8659 122.705 45.5681 122.705 44.1678ZM130.287 44.0653C130.287 45.0558 130.646 45.8755 131.363 46.5244C132.08 47.1392 133.019 47.4466 134.181 47.4466C135.376 47.4466 136.332 47.1392 137.05 46.5244C137.801 45.8755 138.177 45.0558 138.177 44.0653C138.177 42.9724 137.818 42.1356 137.101 41.555C136.384 40.9402 135.41 40.6328 134.181 40.6328C133.019 40.6328 132.08 40.9231 131.363 41.5037C130.646 42.0502 130.287 42.9041 130.287 44.0653ZM140.79 14.3C140.721 12.8655 140.994 11.7896 141.609 11.0724C142.258 10.321 143.215 9.94531 144.478 9.94531C145.639 9.94531 146.579 10.3039 147.296 11.0212C148.047 11.7043 148.457 12.8655 148.525 14.5049C148.594 16.2467 148.628 17.8008 148.628 19.1669C148.662 20.4989 148.679 21.7626 148.679 22.958C148.679 24.1193 148.662 25.2293 148.628 26.2881C148.628 27.3468 148.611 28.4398 148.577 29.5669C148.508 31.2063 148.15 32.5041 147.501 33.4604C146.852 34.4168 145.879 34.8949 144.581 34.8949C143.283 34.8949 142.326 34.5192 141.712 33.7678C141.131 32.9823 140.892 31.7186 140.994 29.9767C141.029 29.0887 141.046 28.0129 141.046 26.7491C141.08 25.4854 141.08 24.1534 141.046 22.7531C141.046 21.3186 141.012 19.8671 140.943 18.3985C140.909 16.9298 140.858 15.5637 140.79 14.3Z" fill="#1B92FF"/>
<path d="M85.3095 53.7478C84.319 53.7478 83.3798 53.4062 82.4918 52.7232C81.6379 52.0401 81.1768 51.0325 81.1085 49.7005C81.1085 49.2907 81.0914 48.7954 81.0573 48.2148C81.0573 47.6342 81.0402 47.0023 81.0061 46.3193C81.0061 45.6362 81.0061 44.9189 81.0061 44.1676C81.0061 43.4162 81.0061 42.6648 81.0061 41.9134C78.5128 41.8792 76.0879 41.828 73.7312 41.7597C71.4087 41.6914 69.3083 41.5718 67.4298 41.4011C65.8587 41.2645 64.7658 40.8888 64.151 40.274C63.5362 39.6251 63.263 38.8054 63.3313 37.8149C63.3996 36.8244 63.7241 36.0218 64.3047 35.407C64.9195 34.7581 66.0465 34.4678 67.6859 34.5361C70.4524 34.6386 73.3214 34.7239 76.2928 34.7922C79.2984 34.8264 82.2868 34.8435 85.2582 34.8435C88.2638 34.8435 91.2352 34.8264 94.1725 34.7922C97.1097 34.7239 99.9104 34.6215 102.574 34.4849C104.316 34.4166 105.529 34.741 106.212 35.4583C106.929 36.1413 107.288 37.0123 107.288 38.071C107.288 39.0615 107.014 39.83 106.468 40.3764C105.956 40.8888 105.051 41.2132 103.753 41.3498C102.25 41.5206 100.252 41.6572 97.7587 41.7597C95.2996 41.828 92.6014 41.8792 89.6641 41.9134C89.63 43.0063 89.5958 44.1334 89.5617 45.2946C89.5617 46.4217 89.5617 47.4464 89.5617 48.3685C89.5617 49.2907 89.4251 50.0762 89.1518 50.7252C88.9127 51.4082 88.5883 51.9718 88.1784 52.4158C87.8027 52.8598 87.3587 53.1843 86.8464 53.3892C86.3341 53.6283 85.8218 53.7478 85.3095 53.7478ZM67.8909 24.4948C67.8909 23.1969 67.8909 22.1211 67.8909 21.2672C67.8909 20.4134 67.8909 19.679 67.8909 19.0643C67.925 18.4153 67.9421 17.8347 67.9421 17.3224C67.9763 16.8101 68.0275 16.2295 68.0958 15.5805C68.1983 14.4535 68.5569 13.6167 69.1716 13.0702C69.7864 12.4896 70.794 12.1822 72.1943 12.1481C74.346 12.1139 76.5489 12.0797 78.8031 12.0456C81.0914 12.0114 83.3627 11.9944 85.6169 11.9944C87.871 11.9602 90.074 11.9602 92.2257 11.9944C94.3774 11.9944 96.4096 12.0456 98.3222 12.1481C99.7225 12.2164 100.73 12.5238 101.345 13.0702C101.96 13.6167 102.318 14.4535 102.421 15.5805C102.455 16.2295 102.489 16.8101 102.523 17.3224C102.557 17.8347 102.574 18.4153 102.574 19.0643C102.609 19.679 102.626 20.4134 102.626 21.2672C102.626 22.1211 102.626 23.1969 102.626 24.4948C102.626 25.7243 102.54 26.766 102.369 27.6199C102.233 28.4396 101.925 29.1227 101.447 29.6691C100.969 30.1814 100.286 30.5742 99.3981 30.8474C98.5101 31.1207 97.3147 31.3085 95.8119 31.411C94.514 31.4793 92.9942 31.5305 91.2523 31.5647C89.5104 31.5988 87.6832 31.6159 85.7706 31.6159C83.8579 31.6159 81.9282 31.5988 79.9814 31.5647C78.0688 31.5305 76.3099 31.4964 74.7046 31.4622C73.2018 31.4281 72.0064 31.2744 71.1184 31.0011C70.2304 30.7279 69.5473 30.3181 69.0692 29.7716C68.591 29.191 68.2666 28.4737 68.0958 27.6199C67.9592 26.766 67.8909 25.7243 67.8909 24.4948ZM75.6268 19.8327C75.5926 20.4817 75.5756 21.0111 75.5756 21.4209C75.6097 21.7966 75.6439 22.3089 75.678 22.9578C75.7463 23.6751 75.9 24.1532 76.1391 24.3923C76.4123 24.6314 76.9417 24.768 77.7273 24.8022C78.7177 24.8363 79.8619 24.8705 81.1597 24.9046C82.4918 24.9046 83.8409 24.9046 85.207 24.9046C86.6073 24.9046 87.9735 24.9046 89.3055 24.9046C90.6375 24.8705 91.7988 24.8363 92.7892 24.8022C93.5748 24.768 94.0871 24.6314 94.3262 24.3923C94.5994 24.1532 94.7702 23.6751 94.8385 22.9578C94.8726 22.3089 94.8897 21.7966 94.8897 21.4209C94.9239 21.0111 94.9239 20.4817 94.8897 19.8327C94.8556 19.457 94.7702 19.2009 94.6336 19.0643C94.5311 18.9277 94.2579 18.8423 93.8139 18.8081C92.9259 18.7398 91.6963 18.7057 90.1252 18.7057C88.5883 18.6715 86.966 18.6544 85.2582 18.6544C83.5847 18.6544 81.9624 18.6715 80.3913 18.7057C78.8202 18.7398 77.5906 18.774 76.7026 18.8081C76.2586 18.8423 75.9683 18.9277 75.8317 19.0643C75.7292 19.2009 75.6609 19.457 75.6268 19.8327Z" fill="#1B92FF"/>
</svg>
