<svg width="20" height="20" viewBox="0 0 20 20" fill="none" xmlns="http://www.w3.org/2000/svg">
<path d="M9.25 12.0166V18.0811C8.88452 17.9195 8.45642 17.6505 7.85645 17.2695L4.85645 15.3652C3.94889 14.789 3.49436 14.5007 3.24707 14.0508C2.99981 13.6009 3 13.0632 3 11.9883V9.27344C3 8.49902 3.00126 8.00387 3.09375 7.61914L9.25 12.0166ZM16.9053 7.61914C16.9978 8.0039 17 8.49888 17 9.27344V11.9883C17 13.0632 17.0002 13.6009 16.7529 14.0508C16.5057 14.5006 16.052 14.7891 15.1445 15.3652H15.1436L12.1436 17.2695C11.5436 17.6505 11.1155 17.9195 10.75 18.0811V12.0166L16.9053 7.61914ZM10 3C10.5812 3 11.102 3.33086 12.1436 3.99219L15.1436 5.89746C15.4785 6.11015 15.7518 6.28362 15.9756 6.44043L10 10.709L4.02344 6.44043C4.24734 6.2835 4.52114 6.11035 4.85645 5.89746L7.85645 3.99219C8.89804 3.33086 9.41878 3 10 3Z" fill="#1B92FF"/>
</svg>
