<svg width="20" height="20" viewBox="0 0 20 20" fill="none" xmlns="http://www.w3.org/2000/svg">
<path d="M10.125 5.60059L10.1299 6.24219C10.1351 6.44349 10.1455 6.63089 10.168 6.79785C10.2158 7.15316 10.3288 7.52903 10.6377 7.83789L10.7568 7.94434C11.0406 8.17337 11.3668 8.26483 11.6777 8.30664C12.0116 8.35153 12.4248 8.35059 12.875 8.35059H16V13.2002C16 15.4628 15.9998 16.594 15.3408 17.2969C14.6818 17.9998 13.6213 18 11.5 18H8.5C6.37868 18 5.31819 17.9998 4.65918 17.2969C4.0002 16.594 4 15.4628 4 13.2002V6.7998C4 4.53721 4.0002 3.40605 4.65918 2.70312C5.31819 2.00018 6.37868 2 8.5 2H10.125V5.60059ZM7.375 13.25C6.96079 13.25 6.625 13.5858 6.625 14C6.625 14.4142 6.96079 14.75 7.375 14.75H10.875C11.2892 14.75 11.625 14.4142 11.625 14C11.625 13.5858 11.2892 13.25 10.875 13.25H7.375ZM7.375 10.0498C6.96084 10.0498 6.62509 10.3857 6.625 10.7998C6.625 11.214 6.96079 11.5498 7.375 11.5498H12.625L12.7021 11.5459C13.0801 11.5073 13.375 11.188 13.375 10.7998C13.3749 10.4117 13.0801 10.0923 12.7021 10.0537L12.625 10.0498H7.375ZM11.625 2.01074C11.8662 2.0228 12.0403 2.05013 12.2031 2.12207C12.4786 2.24392 12.6956 2.47531 13.1289 2.9375L15.1211 5.0625C15.5546 5.52495 15.7716 5.75675 15.8857 6.05078C15.9682 6.2632 15.9898 6.49283 15.9961 6.85059H12.875C12.3826 6.85059 12.0886 6.84861 11.8779 6.82031C11.7815 6.80735 11.7328 6.79217 11.7109 6.7832C11.706 6.78115 11.7021 6.77934 11.7002 6.77832L11.6982 6.77637V6.77734C11.6981 6.77706 11.698 6.77587 11.6973 6.77441C11.6963 6.77256 11.6944 6.76937 11.6924 6.76465C11.6834 6.74289 11.6682 6.69399 11.6553 6.59766C11.6411 6.49223 11.6328 6.36567 11.6289 6.2041L11.625 5.60059V2.01074Z" fill="#FF4F64"/>
</svg>
