<svg width="32" height="32" viewBox="0 0 32 32" fill="none" xmlns="http://www.w3.org/2000/svg">
<rect x="0.5" y="0.5" width="31" height="31" rx="7.5" fill="#F5FAFF"/>
<rect x="0.5" y="0.5" width="31" height="31" rx="7.5" stroke="#4DA9FF"/>
<mask id="path-2-inside-1_1_8336" fill="white">
<path d="M11 11C11.8392 11 12.5567 11.5172 12.8535 12.25H22C22.4142 12.25 22.75 12.5858 22.75 13C22.75 13.4142 22.4142 13.75 22 13.75H12.8535C12.5567 14.4828 11.8392 15 11 15C9.89543 15 9 14.1046 9 13C9 11.8954 9.89543 11 11 11Z"/>
</mask>
<path d="M11 11C11.8392 11 12.5567 11.5172 12.8535 12.25H22C22.4142 12.25 22.75 12.5858 22.75 13C22.75 13.4142 22.4142 13.75 22 13.75H12.8535C12.5567 14.4828 11.8392 15 11 15C9.89543 15 9 14.1046 9 13C9 11.8954 9.89543 11 11 11Z" fill="#4DA9FF"/>
<path d="M12.8535 12.25L11.9267 12.6254L12.1796 13.25H12.8535V12.25ZM22 12.25V11.25V12.25ZM22.75 13H23.75V13L22.75 13ZM22 13.75V12.75V13.75ZM12.8535 13.75V12.75H12.1796L11.9267 13.3746L12.8535 13.75ZM11 11V12C11.4172 12 11.7772 12.2564 11.9267 12.6254L12.8535 12.25L13.7804 11.8746C13.3363 10.7781 12.2612 10 11 10V11ZM12.8535 12.25V13.25H22V12.25V11.25H12.8535V12.25ZM22 12.25V13.25C21.8619 13.25 21.75 13.1381 21.75 13L22.75 13L23.75 13C23.75 12.0335 22.9665 11.25 22 11.25V12.25ZM22.75 13L21.75 13C21.75 12.8619 21.8619 12.75 22 12.75V13.75V14.75C22.9665 14.75 23.75 13.9665 23.75 13H22.75ZM22 13.75V12.75H12.8535V13.75V14.75H22V13.75ZM12.8535 13.75L11.9267 13.3746C11.7772 13.7436 11.4172 14 11 14V15V16C12.2612 16 13.3363 15.2219 13.7804 14.1254L12.8535 13.75ZM11 15V14C10.4477 14 10 13.5523 10 13H9H8C8 14.6569 9.34315 16 11 16V15ZM9 13H10C10 12.4477 10.4477 12 11 12V11V10C9.34315 10 8 11.3431 8 13H9Z" fill="#4DA9FF" mask="url(#path-2-inside-1_1_8336)"/>
<mask id="path-4-inside-2_1_8336" fill="white">
<path d="M21 17C22.1046 17 23 17.8954 23 19C23 20.1046 22.1046 21 21 21C20.1608 21 19.4433 20.4828 19.1465 19.75H10C9.58579 19.75 9.25 19.4142 9.25 19C9.25 18.5858 9.58579 18.25 10 18.25H19.1465C19.4433 17.5172 20.1608 17 21 17Z"/>
</mask>
<path d="M21 17C22.1046 17 23 17.8954 23 19C23 20.1046 22.1046 21 21 21C20.1608 21 19.4433 20.4828 19.1465 19.75H10C9.58579 19.75 9.25 19.4142 9.25 19C9.25 18.5858 9.58579 18.25 10 18.25H19.1465C19.4433 17.5172 20.1608 17 21 17Z" fill="#4DA9FF"/>
<path d="M19.1465 19.75L20.0733 19.3746L19.8204 18.75H19.1465V19.75ZM10 19.75L10 20.75H10V19.75ZM9.25 19L8.25 19V19H9.25ZM10 18.25V19.25V18.25ZM19.1465 18.25V19.25H19.8204L20.0733 18.6254L19.1465 18.25ZM21 17V18C21.5523 18 22 18.4477 22 19H23H24C24 17.3431 22.6569 16 21 16V17ZM23 19H22C22 19.5523 21.5523 20 21 20V21V22C22.6569 22 24 20.6569 24 19H23ZM21 21V20C20.5828 20 20.2228 19.7436 20.0733 19.3746L19.1465 19.75L18.2196 20.1254C18.6637 21.2219 19.7388 22 21 22V21ZM19.1465 19.75V18.75H10V19.75V20.75H19.1465V19.75ZM10 19.75L10 18.75C10.1381 18.75 10.25 18.8619 10.25 19H9.25H8.25C8.25 19.9665 9.0335 20.75 10 20.75L10 19.75ZM9.25 19H10.25C10.25 19.1381 10.1381 19.25 10 19.25V18.25V17.25C9.0335 17.25 8.25 18.0335 8.25 19L9.25 19ZM10 18.25V19.25H19.1465V18.25V17.25H10V18.25ZM19.1465 18.25L20.0733 18.6254C20.2228 18.2564 20.5828 18 21 18V17V16C19.7388 16 18.6637 16.7781 18.2196 17.8746L19.1465 18.25Z" fill="#4DA9FF" mask="url(#path-4-inside-2_1_8336)"/>
</svg>
