<svg width="30" height="34" viewBox="0 0 30 34" fill="none" xmlns="http://www.w3.org/2000/svg">
<circle cx="15.0001" cy="15.0191" r="14.4" fill="#1B92FF"/>
<mask id="mask0_1_1519" style="mask-type:alpha" maskUnits="userSpaceOnUse" x="15" y="0" width="15" height="34">
<rect width="14.4" height="32.76" transform="matrix(1 0 0 -1 15 33.3789)" fill="#D9D9D9"/>
</mask>
<g mask="url(#mask0_1_1519)">
<path d="M0.599903 15.0191C0.599903 26.8991 14.9999 33.3791 14.9999 33.3791C14.9999 33.3791 29.3999 26.8991 29.3999 15.0191C29.3999 7.06624 22.9528 0.619141 14.9999 0.619141C7.047 0.619141 0.599903 7.06624 0.599903 15.0191Z" fill="#1B92FF"/>
</g>
<rect x="18.6294" y="9.55078" width="4.032" height="10.944" rx="2.016" fill="#E9F4FF"/>
<rect x="11.627" y="9.57031" width="4.032" height="10.944" rx="2.016" fill="#E9F4FF"/>
<rect opacity="0.8" x="13.6499" y="8.72656" width="4.032" height="13.8697" rx="2.016" transform="rotate(45.4799 13.6499 8.72656)" fill="#E9F4FF"/>
<rect opacity="0.8" x="23.4507" y="12.9785" width="3.9766" height="7.83348" rx="1.9883" transform="rotate(45.4799 23.4507 12.9785)" fill="#E9F4FF"/>
<rect opacity="0.8" x="20.6523" y="8.70703" width="4.07846" height="13.8196" rx="2.03923" transform="rotate(45.4799 20.6523 8.70703)" fill="#E9F4FF"/>
</svg>
