<svg width="511" height="219" viewBox="0 0 511 219" fill="none" xmlns="http://www.w3.org/2000/svg">
<path d="M0 114.24C0 108.585 4.5846 104 10.24 104H115.2C120.855 104 125.44 108.585 125.44 114.24V218.56H0V114.24Z" fill="#E9F4FF"/>
<path d="M103.879 10.24C103.879 4.58461 108.464 0 114.119 0H219.079C224.734 0 229.319 4.5846 229.319 10.24V144H103.879V10.24Z" fill="#E9F4FF"/>
<path d="M402.762 131.2C402.762 125.545 407.346 120.96 413.002 120.96H517.962C523.617 120.96 528.202 125.545 528.202 131.2V218.24H402.762V131.2Z" fill="#E9F4FF"/>
<path d="M326.602 64.224C326.602 62.1516 327.851 60.2836 329.766 59.4921L387.366 35.688C388.618 35.1705 390.025 35.1705 391.277 35.688L448.877 59.4921C450.792 60.2836 452.042 62.1516 452.042 64.224V218.24H326.602V64.224Z" fill="#F96C44"/>
<path d="M75.7188 71.0398C75.7188 65.3844 80.3034 60.7998 85.9588 60.7998H190.919C196.574 60.7998 201.159 65.3844 201.159 71.0398V218.24H75.7188V71.0398Z" fill="#C4D5F5"/>
<path d="M201.16 102.4C201.16 99.5721 203.452 97.2798 206.28 97.2798H321.48C324.308 97.2798 326.6 99.5721 326.6 102.4V218.24H201.16V102.4Z" fill="#1C7EC7"/>
<rect x="201.16" y="19.2002" width="125.44" height="117.12" rx="10.24" fill="#1C7EC7"/>
<rect x="89.8008" y="76.1602" width="44.8" height="21.12" rx="5.12" fill="#DAE4F9"/>
<rect x="89.8008" y="106.24" width="44.8" height="21.12" rx="5.12" fill="#DAE4F9"/>
<rect x="89.8008" y="136.32" width="44.8" height="21.12" rx="5.12" fill="#DAE4F9"/>
<rect x="89.8008" y="166.4" width="44.8" height="21.12" rx="5.12" fill="#DAE4F9"/>
<rect x="142.281" y="76.1602" width="44.8" height="21.12" rx="5.12" fill="#DAE4F9"/>
<rect x="343.879" y="76.1602" width="90.88" height="21.12" rx="5.12" fill="#F88652"/>
<rect x="343.879" y="106.24" width="90.88" height="21.12" rx="5.12" fill="#F88652"/>
<rect x="343.879" y="136.32" width="90.88" height="21.12" rx="5.12" fill="#F88652"/>
<rect x="343.879" y="166.4" width="90.88" height="21.12" rx="5.12" fill="#F88652"/>
<rect x="142.281" y="106.24" width="44.8" height="21.12" rx="5.12" fill="#DAE4F9"/>
<rect x="142.281" y="136.32" width="44.8" height="21.12" rx="5.12" fill="#DAE4F9"/>
<rect x="142.281" y="166.4" width="44.8" height="21.12" rx="5.12" fill="#DAE4F9"/>
<path d="M216.52 56.9601C216.52 49.8909 222.25 44.1602 229.32 44.1602C236.389 44.1602 242.12 49.8909 242.12 56.9602V72.3202C242.12 75.1479 239.827 77.4402 237 77.4402H221.64C218.812 77.4402 216.52 75.1479 216.52 72.3202V56.9601Z" fill="#2C93E0"/>
<path d="M216.52 100.48C216.52 93.4104 222.25 87.6797 229.32 87.6797C236.389 87.6797 242.12 93.4104 242.12 100.48V115.84C242.12 118.667 239.827 120.96 237 120.96H221.64C218.812 120.96 216.52 118.667 216.52 115.84V100.48Z" fill="#2C93E0"/>
<path d="M216.52 144C216.52 136.931 222.25 131.2 229.32 131.2C236.389 131.2 242.12 136.931 242.12 144V159.36C242.12 162.188 239.827 164.48 237 164.48H221.64C218.812 164.48 216.52 162.188 216.52 159.36V144Z" fill="#2C93E0"/>
<path d="M251.078 56.9601C251.078 49.8909 256.809 44.1602 263.878 44.1602C270.947 44.1602 276.678 49.8909 276.678 56.9602V72.3202C276.678 75.1479 274.386 77.4402 271.558 77.4402H256.198C253.37 77.4402 251.078 75.1479 251.078 72.3202V56.9601Z" fill="#2C93E0"/>
<path d="M251.078 100.48C251.078 93.4104 256.809 87.6797 263.878 87.6797C270.947 87.6797 276.678 93.4104 276.678 100.48V115.84C276.678 118.667 274.386 120.96 271.558 120.96H256.198C253.37 120.96 251.078 118.667 251.078 115.84V100.48Z" fill="#2C93E0"/>
<path d="M251.078 144C251.078 136.931 256.809 131.2 263.878 131.2C270.947 131.2 276.678 136.931 276.678 144V159.36C276.678 162.188 274.386 164.48 271.558 164.48H256.198C253.37 164.48 251.078 162.188 251.078 159.36V144Z" fill="#2C93E0"/>
<path d="M285.641 56.9601C285.641 49.8909 291.371 44.1602 298.441 44.1602C305.51 44.1602 311.241 49.8909 311.241 56.9602V72.3202C311.241 75.1479 308.948 77.4402 306.121 77.4402H290.761C287.933 77.4402 285.641 75.1479 285.641 72.3202V56.9601Z" fill="#2C93E0"/>
<path d="M285.641 100.48C285.641 93.4104 291.371 87.6797 298.441 87.6797C305.51 87.6797 311.241 93.4104 311.241 100.48V115.84C311.241 118.667 308.948 120.96 306.121 120.96H290.761C287.933 120.96 285.641 118.667 285.641 115.84V100.48Z" fill="#2C93E0"/>
<path d="M285.641 144C285.641 136.931 291.371 131.2 298.441 131.2C305.51 131.2 311.241 136.931 311.241 144V159.36C311.241 162.188 308.948 164.48 306.121 164.48H290.761C287.933 164.48 285.641 162.188 285.641 159.36V144Z" fill="#2C93E0"/>
</svg>
