<svg width="467" height="264" viewBox="0 0 467 264" fill="none" xmlns="http://www.w3.org/2000/svg">
<circle cx="433" cy="259" r="31" fill="#242945"/>
<path d="M51 103C51 85.3269 65.3269 71 83 71H150V234C150 242.837 142.837 250 134 250H83C65.3269 250 51 235.673 51 218V103Z" fill="#E9F4FF"/>
<path d="M18 157C18 139.327 32.3269 125 50 125H101V234C101 242.837 93.8366 250 85 250H50C32.3269 250 18 235.673 18 218V157Z" fill="#E9F4FF"/>
<path d="M150 20C150 8.9543 158.954 0 170 0H466C477.046 0 486 8.9543 486 20V234C486 242.837 478.837 250 470 250H166C157.163 250 150 242.837 150 234V20Z" fill="#1B92FF"/>
<circle cx="90" cy="259" r="31" fill="#242945"/>
<circle cx="248" cy="120.6" r="32" fill="#F5FAFF"/>
<mask id="mask0_1_2500" style="mask-type:alpha" maskUnits="userSpaceOnUse" x="248" y="88" width="32" height="74">
<rect width="32" height="72.8" transform="matrix(1 0 0 -1 248 161.4)" fill="#D9D9D9"/>
</mask>
<g mask="url(#mask0_1_2500)">
<path d="M216 120.6C216 147 248 161.4 248 161.4C248 161.4 280 147 280 120.6C280 102.927 265.673 88.6001 248 88.6001C230.327 88.6001 216 102.927 216 120.6Z" fill="#F5FAFF"/>
</g>
<rect x="256.066" y="108.454" width="8.96" height="24.32" rx="4.48" fill="#4DA9FF"/>
<rect x="240.504" y="108.5" width="8.96" height="24.32" rx="4.48" fill="#4DA9FF"/>
<rect opacity="0.8" x="245" y="106.625" width="8.96" height="30.8215" rx="4.48" transform="rotate(45.4799 245 106.625)" fill="#4DA9FF"/>
<rect opacity="0.8" x="266.781" y="116.069" width="8.83689" height="17.4077" rx="4.41844" transform="rotate(45.4799 266.781 116.069)" fill="#4DA9FF"/>
<rect opacity="0.8" x="260.562" y="106.579" width="9.06325" height="30.7102" rx="4.53162" transform="rotate(45.4799 260.562 106.579)" fill="#4DA9FF"/>
<path d="M361.931 126.057C360.693 126.014 359.669 125.886 358.857 125.672C358.089 125.416 357.47 125.075 357 124.648C356.531 124.178 356.189 123.602 355.976 122.919C355.805 122.193 355.698 121.339 355.655 120.357C355.655 119.973 355.634 119.354 355.591 118.5C355.591 117.603 355.591 116.622 355.591 115.554C355.591 114.444 355.57 113.291 355.527 112.096C355.527 110.901 355.527 109.748 355.527 108.638C355.527 107.528 355.527 106.546 355.527 105.692C355.527 104.838 355.527 104.198 355.527 103.771C355.527 102.191 355.954 101.017 356.808 100.249C357.705 99.4377 358.793 99.0321 360.074 99.0321C361.44 99.0321 362.55 99.4377 363.404 100.249C364.301 101.017 364.749 102.213 364.749 103.835V106.333C365.56 106.333 366.521 106.333 367.631 106.333C368.741 106.333 369.872 106.333 371.025 106.333C372.177 106.333 373.309 106.333 374.419 106.333C375.529 106.333 376.489 106.333 377.301 106.333V103.451C377.301 101.957 377.749 100.847 378.645 100.121C379.542 99.395 380.652 99.0321 381.975 99.0321C383.256 99.0321 384.345 99.3737 385.241 100.057C386.138 100.74 386.586 101.786 386.586 103.195C386.586 103.75 386.586 104.838 386.586 106.461C386.629 108.04 386.65 109.748 386.65 111.584C386.65 113.42 386.65 115.17 386.65 116.835C386.65 118.457 386.629 119.589 386.586 120.229C386.544 121.211 386.415 122.065 386.202 122.791C385.989 123.474 385.626 124.05 385.113 124.52C384.601 124.947 383.897 125.288 383 125.544C382.104 125.8 380.929 125.95 379.478 125.993C378.368 126.078 377.066 126.142 375.572 126.185C374.12 126.185 372.604 126.206 371.025 126.249C369.488 126.249 367.93 126.249 366.35 126.249C364.77 126.206 363.297 126.142 361.931 126.057ZM364.749 117.219C364.792 117.902 364.92 118.308 365.133 118.436C365.347 118.564 365.816 118.649 366.542 118.692C367.908 118.735 369.36 118.756 370.897 118.756C372.434 118.756 373.821 118.713 375.059 118.628C375.529 118.585 375.913 118.564 376.212 118.564C376.511 118.521 376.746 118.479 376.916 118.436C377.087 118.351 377.194 118.222 377.237 118.052C377.322 117.838 377.365 117.561 377.365 117.219V113.313C376.553 113.313 375.593 113.313 374.483 113.313C373.373 113.27 372.22 113.249 371.025 113.249C369.872 113.249 368.741 113.27 367.631 113.313C366.521 113.313 365.56 113.313 364.749 113.313V117.219ZM372.882 140.209C372.882 138.288 373.223 136.559 373.907 135.022C374.632 133.485 375.614 132.183 376.852 131.116C378.133 130.048 379.67 129.237 381.463 128.682C383.256 128.127 385.241 127.85 387.419 127.85C389.425 127.85 391.261 128.127 392.926 128.682C394.634 129.237 396.085 130.048 397.281 131.116C398.519 132.183 399.479 133.485 400.163 135.022C400.846 136.516 401.187 138.245 401.187 140.209C401.187 141.96 400.867 143.582 400.227 145.076C399.629 146.57 398.732 147.873 397.537 148.983C396.342 150.093 394.89 150.968 393.182 151.608C391.517 152.249 389.596 152.569 387.419 152.569C385.241 152.569 383.256 152.249 381.463 151.608C379.713 150.968 378.197 150.093 376.916 148.983C375.636 147.873 374.632 146.57 373.907 145.076C373.223 143.582 372.882 141.96 372.882 140.209ZM382.36 140.081C382.36 141.319 382.808 142.344 383.705 143.155C384.601 143.923 385.775 144.308 387.227 144.308C388.721 144.308 389.916 143.923 390.813 143.155C391.752 142.344 392.222 141.319 392.222 140.081C392.222 138.715 391.773 137.669 390.877 136.943C389.98 136.175 388.764 135.791 387.227 135.791C385.775 135.791 384.601 136.153 383.705 136.879C382.808 137.562 382.36 138.63 382.36 140.081ZM395.488 102.874C395.402 101.081 395.744 99.7366 396.512 98.84C397.323 97.9008 398.519 97.4312 400.098 97.4312C401.55 97.4312 402.724 97.8794 403.621 98.776C404.56 99.6298 405.072 101.081 405.158 103.131C405.243 105.308 405.286 107.25 405.286 108.958C405.328 110.623 405.35 112.203 405.35 113.697C405.35 115.149 405.328 116.536 405.286 117.86C405.286 119.183 405.264 120.549 405.222 121.958C405.136 124.007 404.688 125.63 403.877 126.825C403.066 128.02 401.849 128.618 400.227 128.618C398.604 128.618 397.409 128.149 396.64 127.209C395.915 126.227 395.616 124.648 395.744 122.47C395.787 121.36 395.808 120.016 395.808 118.436C395.851 116.856 395.851 115.191 395.808 113.441C395.808 111.648 395.765 109.833 395.68 107.998C395.637 106.162 395.573 104.454 395.488 102.874Z" fill="#F5FAFF"/>
<path d="M326.138 152.185C324.9 152.185 323.726 151.758 322.616 150.904C321.548 150.05 320.972 148.791 320.887 147.126C320.887 146.613 320.865 145.994 320.823 145.269C320.823 144.543 320.801 143.753 320.759 142.899C320.759 142.045 320.759 141.149 320.759 140.209C320.759 139.27 320.759 138.331 320.759 137.392C317.642 137.349 314.611 137.285 311.665 137.2C308.762 137.114 306.136 136.965 303.788 136.751C301.824 136.581 300.458 136.111 299.69 135.342C298.921 134.531 298.58 133.507 298.665 132.269C298.751 131.031 299.156 130.027 299.882 129.259C300.65 128.448 302.059 128.085 304.108 128.17C307.567 128.298 311.153 128.405 314.867 128.49C318.624 128.533 322.36 128.554 326.074 128.554C329.831 128.554 333.545 128.533 337.217 128.49C340.888 128.405 344.389 128.277 347.719 128.106C349.896 128.021 351.412 128.426 352.266 129.323C353.162 130.177 353.611 131.265 353.611 132.589C353.611 133.827 353.269 134.787 352.586 135.471C351.946 136.111 350.814 136.517 349.192 136.687C347.313 136.901 344.816 137.072 341.699 137.2C338.625 137.285 335.253 137.349 331.581 137.392C331.539 138.758 331.496 140.167 331.453 141.618C331.453 143.027 331.453 144.308 331.453 145.461C331.453 146.613 331.282 147.595 330.941 148.406C330.642 149.26 330.236 149.965 329.724 150.52C329.254 151.075 328.699 151.48 328.059 151.736C327.419 152.035 326.778 152.185 326.138 152.185ZM304.365 115.618C304.365 113.996 304.365 112.651 304.365 111.584C304.365 110.517 304.365 109.599 304.365 108.83C304.407 108.019 304.429 107.293 304.429 106.653C304.471 106.013 304.535 105.287 304.621 104.476C304.749 103.067 305.197 102.021 305.966 101.338C306.734 100.612 307.994 100.228 309.744 100.185C312.434 100.142 315.187 100.1 318.005 100.057C320.865 100.014 323.704 99.993 326.522 99.993C329.34 99.9503 332.094 99.9503 334.783 99.993C337.473 99.993 340.013 100.057 342.404 100.185C344.154 100.27 345.414 100.655 346.182 101.338C346.951 102.021 347.399 103.067 347.527 104.476C347.57 105.287 347.612 106.013 347.655 106.653C347.698 107.293 347.719 108.019 347.719 108.83C347.762 109.599 347.783 110.517 347.783 111.584C347.783 112.651 347.783 113.996 347.783 115.618C347.783 117.155 347.676 118.458 347.463 119.525C347.292 120.549 346.908 121.403 346.31 122.086C345.712 122.727 344.859 123.218 343.749 123.559C342.639 123.901 341.144 124.136 339.266 124.264C337.644 124.349 335.744 124.413 333.566 124.456C331.389 124.499 329.105 124.52 326.714 124.52C324.323 124.52 321.911 124.499 319.478 124.456C317.087 124.413 314.888 124.37 312.882 124.328C311.003 124.285 309.509 124.093 308.399 123.751C307.289 123.41 306.435 122.898 305.838 122.214C305.24 121.489 304.834 120.592 304.621 119.525C304.45 118.458 304.365 117.155 304.365 115.618ZM314.035 109.791C313.992 110.602 313.97 111.264 313.97 111.776C314.013 112.246 314.056 112.886 314.099 113.697C314.184 114.594 314.376 115.192 314.675 115.49C315.016 115.789 315.678 115.96 316.66 116.003C317.898 116.045 319.328 116.088 320.951 116.131C322.616 116.131 324.302 116.131 326.01 116.131C327.76 116.131 329.468 116.131 331.133 116.131C332.798 116.088 334.249 116.045 335.488 116.003C336.47 115.96 337.11 115.789 337.409 115.49C337.75 115.192 337.964 114.594 338.049 113.697C338.092 112.886 338.113 112.246 338.113 111.776C338.156 111.264 338.156 110.602 338.113 109.791C338.07 109.321 337.964 109.001 337.793 108.83C337.665 108.66 337.323 108.553 336.768 108.51C335.658 108.425 334.121 108.382 332.158 108.382C330.236 108.339 328.208 108.318 326.074 108.318C323.982 108.318 321.954 108.339 319.99 108.382C318.026 108.425 316.489 108.467 315.379 108.51C314.824 108.553 314.461 108.66 314.291 108.83C314.163 109.001 314.077 109.321 314.035 109.791Z" fill="#F5FAFF"/>
<path d="M61 105C61 91.7452 71.7452 81 85 81H132C136.418 81 140 84.5817 140 89V128C140 132.418 136.418 136 132 136H69C64.5817 136 61 132.418 61 128V105Z" fill="#242945"/>
<circle cx="18" cy="188" r="18" fill="#1B92FF"/>
</svg>
