<svg width="404" height="304" viewBox="0 0 404 304" fill="none" xmlns="http://www.w3.org/2000/svg">
<path d="M180.08 164.636C262.863 134.395 351.588 85.566 411.999 43.1999L463.549 7.04809C467.79 4.0737 473.599 7.12499 473.599 12.3053V163.062C473.599 165.154 472.571 167.121 470.847 168.305C356.174 247.033 217.859 261.441 200.399 241.6C187.512 226.955 179.227 191.533 175.973 171.529C175.487 168.539 177.235 165.675 180.08 164.636Z" fill="#4DA9FF"/>
<rect x="21.6016" y="246.4" width="32" height="38.4" rx="12.8" fill="#242945"/>
<rect x="160.801" y="246.4" width="32" height="38.4" rx="12.8" fill="#242945"/>
<rect y="73.6006" width="214.4" height="192" rx="6.4" fill="#F96C44"/>
<rect x="8.80078" y="86.4004" width="196.8" height="76.8" rx="6.4" fill="#F78956"/>
<rect x="8.80078" y="176" width="196.8" height="76.8" rx="6.4" fill="#F78956"/>
<rect x="53.6016" y="136.801" width="107.2" height="52.8" rx="3.2" fill="#F7C056"/>
<rect x="84.8008" y="208.801" width="44.8" height="12.8" rx="3.2" fill="#F96C44"/>
<path d="M146.21 233.597C147.224 233.579 148.19 233.98 148.911 234.692L171.486 256.988C171.911 257.408 172.21 257.891 172.395 258.399H180V288.512C143.033 312.293 115.419 302.313 101.808 299.633C82.3626 299.633 68.6773 298.093 65.1621 294.5C55.366 284.487 61.2473 277.29 68.4853 273.259C66.6991 268.802 68.1872 264.074 69.7949 261.441C85.626 239.875 126.331 233.948 146.21 233.597Z" fill="#F4C7A9"/>
<path d="M68.8008 272.8C73.5661 275.818 82.4008 281.6 107.201 272.8" stroke="#ECB087" stroke-width="3.2"/>
<path d="M145.9 228.335L158.867 225.188C161.738 224.491 164.713 225.85 166.066 228.477L195.14 284.919C196.882 288.301 195.306 292.465 191.698 293.668C178.712 297.997 170.165 298.685 165.934 298.313C164.507 298.187 163.304 297.287 162.501 296.1C143.53 268.053 141.548 248.017 140.995 234.815C140.868 231.767 142.935 229.055 145.9 228.335Z" fill="#E9F4FF"/>
<path d="M160.08 219.036C242.863 188.795 331.588 139.966 391.999 97.5998L443.549 61.448C447.79 58.4736 453.599 61.5249 453.599 66.7052V217.462C453.599 219.554 452.571 221.521 450.847 222.705C336.174 301.433 197.859 315.841 180.399 296C167.512 281.355 159.227 245.933 155.973 225.929C155.487 222.939 157.235 220.075 160.08 219.036Z" fill="#1B92FF"/>
</svg>
