<svg width="378" height="140" viewBox="0 0 378 140" fill="none" xmlns="http://www.w3.org/2000/svg">
<circle cx="207.84" cy="124.72" r="14.88" fill="#A2CAEE"/>
<path d="M80.6399 120.4H216.48C216.48 124.642 213.041 128.08 208.8 128.08H88.3199C84.0783 128.08 80.6399 124.642 80.6399 120.4Z" fill="#A2CAEE"/>
<path d="M24.48 49.8405C24.48 41.3574 31.3569 34.4805 39.84 34.4805H72V120.4H39.84C31.3569 120.4 24.48 113.524 24.48 105.04V49.8405Z" fill="#E9F4FF"/>
<path d="M8.63989 75.7604C8.63989 67.2773 15.5168 60.4004 23.9999 60.4004H48.4799V112.72C48.4799 116.962 45.0414 120.4 40.7999 120.4H23.9999C15.5168 120.4 8.63989 113.523 8.63989 105.04V75.7604Z" fill="#E9F4FF"/>
<path d="M72 10.0004C72 4.69845 76.2981 0.400391 81.6 0.400391H223.68C228.982 0.400391 233.28 4.69846 233.28 10.0004V112.72C233.28 116.962 229.842 120.4 225.6 120.4H72V10.0004Z" fill="#B1D7F9"/>
<circle cx="43.1998" cy="124.72" r="14.88" fill="#A2CAEE"/>
<circle cx="119.04" cy="58.2897" r="15.36" fill="#F5FAFF"/>
<mask id="mask0_1_11412" style="mask-type:alpha" maskUnits="userSpaceOnUse" x="119" y="42" width="16" height="36">
<rect width="15.36" height="34.944" transform="matrix(1 0 0 -1 119.039 77.875)" fill="#D9D9D9"/>
</mask>
<g mask="url(#mask0_1_11412)">
<path d="M103.679 58.2897C103.679 70.9617 119.039 77.8737 119.039 77.8737C119.039 77.8737 134.399 70.9617 134.399 58.2897C134.399 49.8066 127.523 42.9297 119.039 42.9297C110.556 42.9297 103.679 49.8066 103.679 58.2897Z" fill="#F5FAFF"/>
</g>
<rect x="122.911" y="52.4609" width="4.3008" height="11.6736" rx="2.1504" fill="#B1D7F9"/>
<rect x="115.442" y="52.4824" width="4.3008" height="11.6736" rx="2.1504" fill="#B1D7F9"/>
<rect opacity="0.8" x="117.6" y="51.582" width="4.3008" height="14.7943" rx="2.1504" transform="rotate(45.4799 117.6 51.582)" fill="#B1D7F9"/>
<rect opacity="0.8" x="128.054" y="56.1152" width="4.24171" height="8.35572" rx="2.12085" transform="rotate(45.4799 128.054 56.1152)" fill="#B1D7F9"/>
<rect opacity="0.8" x="125.069" y="51.5605" width="4.35036" height="14.7409" rx="2.17518" transform="rotate(45.4799 125.069 51.5605)" fill="#B1D7F9"/>
<path d="M173.726 60.9082C173.132 60.8877 172.64 60.8262 172.251 60.7237C171.882 60.6008 171.585 60.4369 171.36 60.2319C171.134 60.0065 170.97 59.7299 170.868 59.402C170.786 59.0536 170.735 58.6438 170.714 58.1724C170.714 57.988 170.704 57.6909 170.683 57.281C170.683 56.8507 170.683 56.3793 170.683 55.867C170.683 55.3342 170.673 54.7809 170.653 54.2071C170.653 53.6333 170.653 53.0801 170.653 52.5472C170.653 52.0144 170.653 51.5431 170.653 51.1333C170.653 50.7234 170.653 50.416 170.653 50.2111C170.653 49.4529 170.858 48.8893 171.267 48.5205C171.698 48.1311 172.22 47.9364 172.835 47.9364C173.491 47.9364 174.024 48.1311 174.433 48.5205C174.864 48.8893 175.079 49.4631 175.079 50.2418V51.4407C175.468 51.4407 175.929 51.4407 176.462 51.4407C176.995 51.4407 177.538 51.4407 178.091 51.4407C178.645 51.4407 179.188 51.4407 179.721 51.4407C180.253 51.4407 180.714 51.4407 181.104 51.4407V50.0574C181.104 49.3402 181.319 48.8074 181.749 48.459C182.18 48.1106 182.712 47.9364 183.348 47.9364C183.962 47.9364 184.485 48.1004 184.915 48.4283C185.346 48.7561 185.561 49.2582 185.561 49.9345C185.561 50.2009 185.561 50.7234 185.561 51.5021C185.581 52.2604 185.592 53.0801 185.592 53.9612C185.592 54.8424 185.592 55.6826 185.592 56.4818C185.592 57.2605 185.581 57.8036 185.561 58.111C185.54 58.5823 185.479 58.9921 185.376 59.3405C185.274 59.6684 185.1 59.945 184.854 60.1705C184.608 60.3754 184.27 60.5393 183.84 60.6623C183.409 60.7852 182.846 60.8569 182.149 60.8774C181.616 60.9184 180.991 60.9492 180.274 60.9697C179.577 60.9697 178.85 60.9799 178.091 61.0004C177.354 61.0004 176.606 61.0004 175.847 61.0004C175.089 60.9799 174.382 60.9492 173.726 60.9082ZM175.079 56.6662C175.099 56.9941 175.161 57.1888 175.263 57.2503C175.366 57.3117 175.591 57.3527 175.94 57.3732C176.595 57.3937 177.292 57.404 178.03 57.404C178.768 57.404 179.434 57.3835 180.028 57.3425C180.253 57.322 180.438 57.3117 180.581 57.3117C180.725 57.2913 180.837 57.2708 180.919 57.2503C181.001 57.2093 181.053 57.1478 181.073 57.0658C181.114 56.9634 181.134 56.8302 181.134 56.6662V54.7912C180.745 54.7912 180.284 54.7912 179.751 54.7912C179.218 54.7707 178.665 54.7604 178.091 54.7604C177.538 54.7604 176.995 54.7707 176.462 54.7912C175.929 54.7912 175.468 54.7912 175.079 54.7912V56.6662ZM178.983 67.7014C178.983 66.7793 179.147 65.9493 179.475 65.2116C179.823 64.4739 180.294 63.8489 180.889 63.3365C181.503 62.8242 182.241 62.4349 183.102 62.1685C183.962 61.9021 184.915 61.7689 185.96 61.7689C186.924 61.7689 187.805 61.9021 188.604 62.1685C189.424 62.4349 190.12 62.8242 190.694 63.3365C191.289 63.8489 191.75 64.4739 192.077 65.2116C192.405 65.9288 192.569 66.7588 192.569 67.7014C192.569 68.5416 192.416 69.3203 192.108 70.0376C191.821 70.7548 191.391 71.3798 190.817 71.9126C190.243 72.4454 189.547 72.8655 188.727 73.1729C187.928 73.4803 187.006 73.634 185.96 73.634C184.915 73.634 183.962 73.4803 183.102 73.1729C182.262 72.8655 181.534 72.4454 180.919 71.9126C180.305 71.3798 179.823 70.7548 179.475 70.0376C179.147 69.3203 178.983 68.5416 178.983 67.7014ZM183.532 67.64C183.532 68.2342 183.747 68.7261 184.178 69.1154C184.608 69.4843 185.172 69.6687 185.868 69.6687C186.585 69.6687 187.159 69.4843 187.59 69.1154C188.04 68.7261 188.266 68.2342 188.266 67.64C188.266 66.9842 188.051 66.4821 187.62 66.1338C187.19 65.7649 186.606 65.5805 185.868 65.5805C185.172 65.5805 184.608 65.7546 184.178 66.103C183.747 66.4309 183.532 66.9432 183.532 67.64ZM189.834 49.7808C189.793 48.9201 189.957 48.2746 190.325 47.8442C190.715 47.3934 191.289 47.168 192.047 47.168C192.743 47.168 193.307 47.3831 193.737 47.8135C194.188 48.2233 194.434 48.9201 194.475 49.9037C194.516 50.9488 194.537 51.8812 194.537 52.7009C194.557 53.5001 194.567 54.2584 194.567 54.9756C194.567 55.6723 194.557 56.3384 194.537 56.9736C194.537 57.6089 194.526 58.2646 194.506 58.9409C194.465 59.9245 194.25 60.7033 193.86 61.277C193.471 61.8508 192.887 62.1377 192.108 62.1377C191.33 62.1377 190.756 61.9123 190.387 61.4615C190.038 60.9901 189.895 60.2319 189.957 59.1868C189.977 58.654 189.987 58.0085 189.987 57.2503C190.008 56.492 190.008 55.6928 189.987 54.8527C189.987 53.992 189.967 53.121 189.926 52.2399C189.905 51.3587 189.875 50.539 189.834 49.7808Z" fill="#F5FAFF"/>
<path d="M156.546 73.4502C155.951 73.4502 155.388 73.2453 154.855 72.8355C154.343 72.4256 154.066 71.8211 154.025 71.0219C154.025 70.776 154.015 70.4788 153.994 70.1305C153.994 69.7821 153.984 69.403 153.964 68.9931C153.964 68.5833 153.964 68.1529 153.964 67.7021C153.964 67.2513 153.964 66.8004 153.964 66.3496C152.468 66.3291 151.013 66.2984 149.599 66.2574C148.205 66.2164 146.945 66.1447 145.818 66.0422C144.875 65.9602 144.219 65.7348 143.851 65.366C143.482 64.9766 143.318 64.4848 143.359 63.8905C143.4 63.2962 143.594 62.8146 143.943 62.4458C144.312 62.0564 144.988 61.8822 145.971 61.9232C147.631 61.9847 149.353 62.0359 151.136 62.0769C152.939 62.0974 154.732 62.1077 156.515 62.1077C158.318 62.1077 160.101 62.0974 161.863 62.0769C163.626 62.0359 165.306 61.9745 166.905 61.8925C167.95 61.8515 168.677 62.0462 169.087 62.4765C169.517 62.8864 169.733 63.4089 169.733 64.0442C169.733 64.6385 169.569 65.0996 169.241 65.4274C168.933 65.7348 168.39 65.9295 167.612 66.0115C166.71 66.1139 165.511 66.1959 164.015 66.2574C162.54 66.2984 160.921 66.3291 159.158 66.3496C159.138 67.0054 159.117 67.6816 159.097 68.3784C159.097 69.0546 159.097 69.6694 159.097 70.2227C159.097 70.776 159.015 71.2473 158.851 71.6367C158.708 72.0465 158.513 72.3846 158.267 72.651C158.042 72.9174 157.775 73.1121 157.468 73.2351C157.16 73.3785 156.853 73.4502 156.546 73.4502ZM146.094 55.8984C146.094 55.1197 146.094 54.4742 146.094 53.9619C146.094 53.4496 146.094 53.009 146.094 52.6401C146.115 52.2508 146.125 51.9024 146.125 51.595C146.146 51.2876 146.176 50.9392 146.217 50.5499C146.279 49.8736 146.494 49.3716 146.863 49.0437C147.232 48.6953 147.836 48.5109 148.676 48.4904C149.968 48.4699 151.289 48.4494 152.642 48.4289C154.015 48.4084 155.378 48.3982 156.73 48.3982C158.083 48.3777 159.404 48.3777 160.695 48.3982C161.986 48.3982 163.206 48.4289 164.353 48.4904C165.193 48.5314 165.798 48.7158 166.167 49.0437C166.536 49.3716 166.751 49.8736 166.812 50.5499C166.833 50.9392 166.853 51.2876 166.874 51.595C166.894 51.9024 166.905 52.2508 166.905 52.6401C166.925 53.009 166.935 53.4496 166.935 53.9619C166.935 54.4742 166.935 55.1197 166.935 55.8984C166.935 56.6362 166.884 57.2612 166.782 57.7735C166.7 58.2653 166.515 58.6752 166.228 59.003C165.941 59.3104 165.532 59.5461 164.999 59.71C164.466 59.874 163.749 59.9867 162.847 60.0482C162.068 60.0891 161.156 60.1199 160.111 60.1404C159.066 60.1609 157.97 60.1711 156.822 60.1711C155.675 60.1711 154.517 60.1609 153.349 60.1404C152.201 60.1199 151.146 60.0994 150.183 60.0789C149.281 60.0584 148.564 59.9662 148.031 59.8022C147.498 59.6383 147.088 59.3924 146.801 59.0645C146.515 58.7161 146.32 58.2858 146.217 57.7735C146.135 57.2612 146.094 56.6362 146.094 55.8984ZM150.736 53.1012C150.715 53.4906 150.705 53.8082 150.705 54.0541C150.726 54.2795 150.746 54.5869 150.767 54.9763C150.808 55.4066 150.9 55.6935 151.043 55.837C151.207 55.9804 151.525 56.0624 151.996 56.0829C152.591 56.1034 153.277 56.1238 154.056 56.1443C154.855 56.1443 155.664 56.1443 156.484 56.1443C157.324 56.1443 158.144 56.1443 158.943 56.1443C159.742 56.1238 160.439 56.1034 161.033 56.0829C161.505 56.0624 161.812 55.9804 161.956 55.837C162.12 55.6935 162.222 55.4066 162.263 54.9763C162.283 54.5869 162.294 54.2795 162.294 54.0541C162.314 53.8082 162.314 53.4906 162.294 53.1012C162.273 52.8758 162.222 52.7221 162.14 52.6401C162.079 52.5582 161.915 52.5069 161.648 52.4864C161.115 52.4454 160.378 52.425 159.435 52.425C158.513 52.4045 157.539 52.3942 156.515 52.3942C155.511 52.3942 154.537 52.4045 153.595 52.425C152.652 52.4454 151.914 52.4659 151.381 52.4864C151.115 52.5069 150.941 52.5582 150.859 52.6401C150.797 52.7221 150.756 52.8758 150.736 53.1012Z" fill="#F5FAFF"/>
<path d="M29.28 50.8012C29.28 44.4389 34.4377 39.2812 40.8 39.2812H63.36C65.4808 39.2812 67.2 41.0005 67.2 43.1213V61.8413C67.2 63.962 65.4808 65.6812 63.36 65.6812H33.12C30.9993 65.6812 29.28 63.962 29.28 61.8412V50.8012Z" fill="#B1D7F9"/>
<circle cx="8.63976" cy="90.64" r="8.64" fill="#B1D7F9"/>
<rect x="248" y="31" width="80" height="4" rx="2" fill="#DEDEDE"/>
<rect x="248" y="49" width="100" height="4" rx="2" fill="#DEDEDE"/>
<rect x="248" y="67" width="60" height="4" rx="2" fill="#DEDEDE"/>
</svg>
